<svg width="17" height="18" viewBox="0 0 17 18" fill="none" xmlns="http://www.w3.org/2000/svg">
<path fill-rule="evenodd" clip-rule="evenodd" d="M8.50002 1.67436C5.75877 1.67436 3.54169 3.98355 3.54169 6.83868C3.54169 10.7119 8.50002 16.4296 8.50002 16.4296C8.50002 16.4296 13.4584 10.7119 13.4584 6.83868C13.4584 3.98355 11.2413 1.67436 8.50002 1.67436ZM4.95836 6.83868C4.95836 4.80247 6.54502 3.14988 8.50002 3.14988C10.455 3.14988 12.0417 4.80247 12.0417 6.83868C12.0417 8.96343 10.0017 12.1432 8.50002 14.1277C7.02669 12.1579 4.95836 8.9413 4.95836 6.83868ZM6.72919 6.83868C6.72919 5.82005 7.52202 4.99428 8.50002 4.99428C9.13268 4.99428 9.71728 5.34582 10.0336 5.91648C10.3499 6.48714 10.3499 7.19022 10.0336 7.76088C9.71728 8.33154 9.13268 8.68308 8.50002 8.68308C7.52202 8.68308 6.72919 7.85732 6.72919 6.83868Z" fill="black" fill-opacity="0.54"/>
</svg>
